<?xml version="1.0" standalone="no"?><!DOCTYPE svg PUBLIC "-//W3C//DTD SVG 1.1//EN" "http://www.w3.org/Graphics/SVG/1.1/DTD/svg11.dtd"><svg t="1700474024026" class="icon" viewBox="0 0 1024 1024" version="1.1" xmlns="http://www.w3.org/2000/svg" p-id="9233" xmlns:xlink="http://www.w3.org/1999/xlink" width="128" height="128"><path d="M192 224h128v128H192z m0 448h128v128H192z m0-224h128v128H192z m-64-288h64V96H64v832h128v-64h-64z m576 64h128v128H704z m0 224h128v128H704z m128-288h64v704h-64v64h128V96H832z m-384 64h128v128H448z m256 448h128v128H704zM448 448h128v128H448z m0 224h128v128H448z" fill="#ffffff" p-id="9234"></path></svg>